Coordinates
version=1
nRows=6
nColumns=34
inDegrees=yes

Units are S.I. units (second, meters, Newtons, ...)
If the header above contains a line with 'inDegrees', this indicates whether rotational values are in degrees (yes) or radians (no).

endheader
time	pelvis_tilt	pelvis_list	pelvis_rotation	pelvis_tx	pelvis_ty	pelvis_tz	hip_flexion_r	hip_adduction_r	hip_rotation_r	knee_angle_r	ankle_angle_r	subtalar_angle_r	mtp_angle_r	hip_flexion_l	hip_adduction_l	hip_rotation_l	knee_angle_l	ankle_angle_l	subtalar_angle_l	mtp_angle_l	lumbar_extension	lumbar_bending	lumbar_rotation	arm_flex_r	arm_add_r	arm_rot_r	elbow_flex_r	pro_sup_r	arm_flex_l	arm_add_l	arm_rot_l	elbow_flex_l	pro_sup_l
      0.00000000	      3.46229080	      3.58243576	     -0.34240291	     -0.10399985	      1.33437025	     -0.09588688	     -6.23970042	     -4.87447156	     -2.02948531	      5.39398117	     11.18791648	     -5.56224954	      0.00000000	     -6.89139048	      1.59444502	     -0.82975424	      3.94806221	      8.80233452	     -5.84831544	      0.00000000	     -4.72498059	     -1.20400580	     -3.02636900	      1.93786921	     -8.33145483	     17.50462245	    112.61714557	    100.92285484	     -1.37258108	     -6.45812753	     11.39922436	    111.17606462	    103.42358967
      0.01666670	      2.72963725	      2.98362606	     -0.62348639	     -0.10363380	      1.33111725	     -0.09656108	     -6.11589669	     -3.90265127	     -0.65010328	      4.19029944	     11.60863722	     -3.83351461	      0.00000000	     -6.67830512	      1.21835632	     -1.14970839	      2.74996608	      7.75567294	     -5.15417649	      0.00000000	     -2.84558939	      0.40390486	     -2.66282823	      1.26477048	     -9.04873004	     16.98885328	    114.46502240	    100.77233739	     -2.25001898	     -5.86871106	     10.67174457	    111.22345440	    102.86647295
      0.03333330	      1.73008364	      2.87773442	     -0.87577578	     -0.10314533	      1.33199258	     -0.09607918	     -5.28920520	     -3.65483933	     -0.68820260	      3.57701088	     11.63273228	     -4.02747505	      0.00000000	     -5.51252419	      1.14982444	     -1.65584483	      2.94422966	      8.01607426	     -4.31992749	      0.00000000	     -1.72913920	      0.66261604	     -2.17896518	      0.25950811	     -9.77452084	     17.57975899	    115.22573822	    100.87509119	     -2.10675763	     -5.12697076	     10.53901752	    110.46404159	    102.01454492
      0.05000000	      1.86883331	      2.85200183	     -1.12194735	     -0.10448729	      1.32732337	     -0.09603612	     -5.39918475	     -3.62722293	     -0.29232265	      3.35278671	     11.91514810	     -4.20107622	      0.00000000	     -6.07200468	      1.23583586	     -1.65782514	      2.15558717	      8.09047434	     -4.16684858	      0.00000000	     -1.79585860	      0.64611719	     -1.71065651	     -0.15566666	    -10.29353011	     18.26399002	    115.31670719	    100.97280904	     -1.51780239	     -4.56232749	     10.70339525	    110.97628082	    101.56995500
      0.06666670	      1.71921040	      2.81383346	     -1.23856629	     -0.10378556	      1.32720267	     -0.09653611	     -5.26746114	     -3.57176157	     -0.26990037	      3.13972452	     12.04731043	     -4.30852229	      0.00000000	     -6.18918589	      1.26832987	     -1.50251654	      1.65106224	      8.34360119	     -4.13827384	      0.00000000	     -1.60980701	      0.75598514	     -1.59108351	     -0.06112511	    -10.10932144	     18.48067374	    115.34884889	    100.98970185	     -1.09876111	     -4.27944197	     10.79264232	    111.24318896	    101.51145060
      0.08333330	      1.71205908	      2.77158632	     -1.28558149	     -0.10293975	      1.32869730	     -0.09656983	     -5.32061908	     -3.51165439	     -0.06448158	      3.12553945	     12.09649801	     -4.32922254	      0.00000000	     -6.34500323	      1.26814046	     -1.28547017	      1.42869131	      8.62516538	     -4.10641834	      0.00000000	     -1.26358868	      0.81406972	     -1.27621809	      0.04316498	    -10.03923176	     18.69930259	    115.32810288	    101.00468881	     -0.90334908	     -4.12469122	     10.93394690	    111.59704807	    101.45270802
